<svg xmlns="http://www.w3.org/2000/svg" xmlns:xlink="http://www.w3.org/1999/xlink" width="600" zoomAndPan="magnify" viewBox="0 0 450 74.999997" height="100" preserveAspectRatio="xMidYMid meet" version="1.0"><defs><g/><clipPath id="13aeab7eb9"><rect x="0" width="78" y="0" height="75"/></clipPath><clipPath id="5545ad2c81"><path d="M 113.136719 19.144531 L 197.886719 19.144531 L 197.886719 66.394531 L 113.136719 66.394531 Z M 113.136719 19.144531 " clip-rule="nonzero"/></clipPath><clipPath id="bd0316dd1f"><path d="M 174.300781 19.144531 C 187.382812 19.144531 197.992188 29.75 197.992188 42.832031 C 197.992188 55.914062 187.382812 66.523438 174.300781 66.523438 L 136.828125 66.523438 C 123.746094 66.523438 113.136719 55.914062 113.136719 42.832031 C 113.136719 29.75 123.746094 19.144531 136.828125 19.144531 Z M 174.300781 19.144531 " clip-rule="nonzero"/></clipPath><clipPath id="280b8435eb"><path d="M 123.914062 28.390625 L 153 28.390625 L 153 57.640625 L 123.914062 57.640625 Z M 123.914062 28.390625 " clip-rule="nonzero"/></clipPath><clipPath id="cd1a489fc6"><path d="M 158.332031 28.390625 L 187.582031 28.390625 L 187.582031 57.640625 L 158.332031 57.640625 Z M 158.332031 28.390625 " clip-rule="nonzero"/></clipPath></defs><g transform="matrix(1, 0, 0, 1, 34, -0.000000000000001893)"><g clip-path="url(#13aeab7eb9)"><g fill="#b8a67c" fill-opacity="1"><g transform="translate(1.067405, 65.532945)"><g><path d="M 19.75 0.625 C 16.257812 0.625 12.847656 0.195312 9.515625 -0.65625 C 6.191406 -1.519531 3.539062 -2.601562 1.5625 -3.90625 L 5.625 -12.640625 C 7.488281 -11.441406 9.75 -10.460938 12.40625 -9.703125 C 15.0625 -8.953125 17.664062 -8.578125 20.21875 -8.578125 C 25.363281 -8.578125 27.9375 -9.851562 27.9375 -12.40625 C 27.9375 -13.601562 27.234375 -14.460938 25.828125 -14.984375 C 24.421875 -15.503906 22.265625 -15.945312 19.359375 -16.3125 C 15.921875 -16.832031 13.082031 -17.429688 10.84375 -18.109375 C 8.613281 -18.785156 6.675781 -19.976562 5.03125 -21.6875 C 3.394531 -23.40625 2.578125 -25.851562 2.578125 -29.03125 C 2.578125 -31.6875 3.34375 -34.039062 4.875 -36.09375 C 6.414062 -38.144531 8.65625 -39.742188 11.59375 -40.890625 C 14.53125 -42.035156 18.003906 -42.609375 22.015625 -42.609375 C 24.972656 -42.609375 27.921875 -42.28125 30.859375 -41.625 C 33.804688 -40.976562 36.242188 -40.085938 38.171875 -38.953125 L 34.109375 -30.28125 C 30.410156 -32.363281 26.378906 -33.40625 22.015625 -33.40625 C 19.410156 -33.40625 17.457031 -33.039062 16.15625 -32.3125 C 14.851562 -31.582031 14.203125 -30.644531 14.203125 -29.5 C 14.203125 -28.195312 14.90625 -27.285156 16.3125 -26.765625 C 17.71875 -26.242188 19.957031 -25.75 23.03125 -25.28125 C 26.457031 -24.707031 29.265625 -24.097656 31.453125 -23.453125 C 33.640625 -22.804688 35.535156 -21.625 37.140625 -19.90625 C 38.753906 -18.1875 39.5625 -15.789062 39.5625 -12.71875 C 39.5625 -10.113281 38.78125 -7.796875 37.21875 -5.765625 C 35.664062 -3.742188 33.390625 -2.171875 30.390625 -1.046875 C 27.398438 0.0664062 23.851562 0.625 19.75 0.625 Z M 19.75 0.625 "/></g></g></g><g fill="#b8a67c" fill-opacity="1"><g transform="translate(42.50646, 65.532945)"><g><path d="M 32.703125 -2.03125 C 31.503906 -1.144531 30.03125 -0.476562 28.28125 -0.03125 C 26.539062 0.40625 24.710938 0.625 22.796875 0.625 C 17.796875 0.625 13.929688 -0.648438 11.203125 -3.203125 C 8.472656 -5.753906 7.109375 -9.5 7.109375 -14.4375 L 7.109375 -31.6875 L 0.625 -31.6875 L 0.625 -41.046875 L 7.109375 -41.046875 L 7.109375 -51.28125 L 19.28125 -51.28125 L 19.28125 -41.046875 L 29.734375 -41.046875 L 29.734375 -31.6875 L 19.28125 -31.6875 L 19.28125 -14.59375 C 19.28125 -12.820312 19.734375 -11.453125 20.640625 -10.484375 C 21.554688 -9.523438 22.84375 -9.046875 24.5 -9.046875 C 26.425781 -9.046875 28.066406 -9.566406 29.421875 -10.609375 Z M 32.703125 -2.03125 "/></g></g></g></g></g><g fill="#b8a67c" fill-opacity="1"><g transform="translate(200.662874, 65.052943)"><g><path d="M 48.40625 -57.921875 L 48.40625 0 L 36.765625 0 L 36.765625 -4.84375 C 33.742188 -1.195312 29.375 0.625 23.65625 0.625 C 19.695312 0.625 16.117188 -0.257812 12.921875 -2.03125 C 9.722656 -3.800781 7.210938 -6.320312 5.390625 -9.59375 C 3.566406 -12.875 2.65625 -16.675781 2.65625 -21 C 2.65625 -25.320312 3.566406 -29.117188 5.390625 -32.390625 C 7.210938 -35.671875 9.722656 -38.195312 12.921875 -39.96875 C 16.117188 -41.738281 19.695312 -42.625 23.65625 -42.625 C 29.007812 -42.625 33.195312 -40.929688 36.21875 -37.546875 L 36.21875 -57.921875 Z M 25.765625 -9.375 C 28.828125 -9.375 31.375 -10.425781 33.40625 -12.53125 C 35.4375 -14.632812 36.453125 -17.457031 36.453125 -21 C 36.453125 -24.539062 35.4375 -27.363281 33.40625 -29.46875 C 31.375 -31.570312 28.828125 -32.625 25.765625 -32.625 C 22.640625 -32.625 20.0625 -31.570312 18.03125 -29.46875 C 16 -27.363281 14.984375 -24.539062 14.984375 -21 C 14.984375 -17.457031 16 -14.632812 18.03125 -12.53125 C 20.0625 -10.425781 22.640625 -9.375 25.765625 -9.375 Z M 25.765625 -9.375 "/></g></g></g><g fill="#b8a67c" fill-opacity="1"><g transform="translate(254.679383, 65.052943)"><g><path d="M 5.625 -42 L 17.796875 -42 L 17.796875 0 L 5.625 0 Z M 11.703125 -47.859375 C 9.460938 -47.859375 7.640625 -48.503906 6.234375 -49.796875 C 4.835938 -51.097656 4.140625 -52.710938 4.140625 -54.640625 C 4.140625 -56.566406 4.835938 -58.179688 6.234375 -59.484375 C 7.640625 -60.785156 9.460938 -61.4375 11.703125 -61.4375 C 13.941406 -61.4375 15.765625 -60.8125 17.171875 -59.5625 C 18.578125 -58.3125 19.28125 -56.75 19.28125 -54.875 C 19.28125 -52.84375 18.578125 -51.164062 17.171875 -49.84375 C 15.765625 -48.519531 13.941406 -47.859375 11.703125 -47.859375 Z M 11.703125 -47.859375 "/></g></g></g><g fill="#b8a67c" fill-opacity="1"><g transform="translate(278.175006, 65.052943)"><g><path d="M 25.609375 0.625 C 21.179688 0.625 17.210938 -0.296875 13.703125 -2.140625 C 10.191406 -3.992188 7.445312 -6.554688 5.46875 -9.828125 C 3.488281 -13.109375 2.5 -16.832031 2.5 -21 C 2.5 -25.164062 3.488281 -28.882812 5.46875 -32.15625 C 7.445312 -35.4375 10.191406 -38 13.703125 -39.84375 C 17.210938 -41.695312 21.179688 -42.625 25.609375 -42.625 C 30.023438 -42.625 33.976562 -41.695312 37.46875 -39.84375 C 40.957031 -38 43.691406 -35.4375 45.671875 -32.15625 C 47.648438 -28.882812 48.640625 -25.164062 48.640625 -21 C 48.640625 -16.832031 47.648438 -13.109375 45.671875 -9.828125 C 43.691406 -6.554688 40.957031 -3.992188 37.46875 -2.140625 C 33.976562 -0.296875 30.023438 0.625 25.609375 0.625 Z M 25.609375 -9.375 C 28.722656 -9.375 31.28125 -10.425781 33.28125 -12.53125 C 35.289062 -14.632812 36.296875 -17.457031 36.296875 -21 C 36.296875 -24.539062 35.289062 -27.363281 33.28125 -29.46875 C 31.28125 -31.570312 28.722656 -32.625 25.609375 -32.625 C 22.484375 -32.625 19.90625 -31.570312 17.875 -29.46875 C 15.84375 -27.363281 14.828125 -24.539062 14.828125 -21 C 14.828125 -17.457031 15.84375 -14.632812 17.875 -12.53125 C 19.90625 -10.425781 22.484375 -9.375 25.609375 -9.375 Z M 25.609375 -9.375 "/></g></g></g><g fill="#b8a67c" fill-opacity="1"><g transform="translate(329.303347, 65.052943)"><g><path d="M 17.25 -36.453125 C 18.707031 -38.484375 20.671875 -40.019531 23.140625 -41.0625 C 25.617188 -42.101562 28.46875 -42.625 31.6875 -42.625 L 31.6875 -31.375 C 30.332031 -31.476562 29.425781 -31.53125 28.96875 -31.53125 C 25.476562 -31.53125 22.742188 -30.554688 20.765625 -28.609375 C 18.785156 -26.660156 17.796875 -23.734375 17.796875 -19.828125 L 17.796875 0 L 5.625 0 L 5.625 -42 L 17.25 -42 Z M 17.25 -36.453125 "/></g></g></g><g fill="#b8a67c" fill-opacity="1"><g transform="translate(362.94657, 65.052943)"><g><path d="M 22.5625 -42.625 C 29.0625 -42.625 34.054688 -41.070312 37.546875 -37.96875 C 41.035156 -34.875 42.78125 -30.207031 42.78125 -23.96875 L 42.78125 0 L 31.375 0 L 31.375 -5.234375 C 29.09375 -1.328125 24.828125 0.625 18.578125 0.625 C 15.347656 0.625 12.550781 0.078125 10.1875 -1.015625 C 7.820312 -2.109375 6.015625 -3.617188 4.765625 -5.546875 C 3.515625 -7.472656 2.890625 -9.65625 2.890625 -12.09375 C 2.890625 -16 4.359375 -19.070312 7.296875 -21.3125 C 10.234375 -23.550781 14.773438 -24.671875 20.921875 -24.671875 L 30.59375 -24.671875 C 30.59375 -27.328125 29.785156 -29.367188 28.171875 -30.796875 C 26.566406 -32.222656 24.148438 -32.9375 20.921875 -32.9375 C 18.679688 -32.9375 16.476562 -32.582031 14.3125 -31.875 C 12.15625 -31.175781 10.328125 -30.234375 8.828125 -29.046875 L 4.453125 -37.546875 C 6.742188 -39.160156 9.488281 -40.410156 12.6875 -41.296875 C 15.882812 -42.179688 19.175781 -42.625 22.5625 -42.625 Z M 21.625 -7.578125 C 23.707031 -7.578125 25.550781 -8.054688 27.15625 -9.015625 C 28.769531 -9.972656 29.914062 -11.390625 30.59375 -13.265625 L 30.59375 -17.5625 L 22.25 -17.5625 C 17.25 -17.5625 14.75 -15.921875 14.75 -12.640625 C 14.75 -11.078125 15.359375 -9.84375 16.578125 -8.9375 C 17.804688 -8.03125 19.488281 -7.578125 21.625 -7.578125 Z M 21.625 -7.578125 "/></g></g></g><g clip-path="url(#5545ad2c81)"><g clip-path="url(#bd0316dd1f)"><path stroke-linecap="butt" transform="matrix(0.75, 0, 0, 0.75, 113.13846, 19.142984)" fill="none" stroke-linejoin="miter" d="M 81.549769 0.002063 C 98.992478 0.002063 113.138313 14.142689 113.138313 31.585399 C 113.138313 49.028109 98.992478 63.173943 81.549769 63.173943 L 31.586223 63.173943 C 14.143513 63.173943 -0.00232135 49.028109 -0.00232135 31.585399 C -0.00232135 14.142689 14.143513 0.002063 31.586223 0.002063 Z M 81.549769 0.002063 " stroke="#c4b28d" stroke-width="12" stroke-opacity="1" stroke-miterlimit="4"/></g></g><g clip-path="url(#280b8435eb)"><path fill="#c4b28d" d="M 138.355469 28.390625 C 137.410156 28.390625 136.46875 28.484375 135.539062 28.667969 C 134.609375 28.851562 133.707031 29.125 132.828125 29.488281 C 131.953125 29.851562 131.121094 30.296875 130.332031 30.824219 C 129.542969 31.351562 128.8125 31.949219 128.144531 32.621094 C 127.472656 33.292969 126.875 34.019531 126.347656 34.808594 C 125.820312 35.597656 125.375 36.429688 125.011719 37.304688 C 124.648438 38.183594 124.375 39.085938 124.191406 40.015625 C 124.007812 40.945312 123.914062 41.886719 123.914062 42.832031 C 123.914062 43.78125 124.007812 44.722656 124.191406 45.652344 C 124.375 46.582031 124.648438 47.484375 125.011719 48.359375 C 125.375 49.238281 125.820312 50.070312 126.347656 50.859375 C 126.875 51.644531 127.472656 52.375 128.144531 53.046875 C 128.8125 53.71875 129.542969 54.316406 130.332031 54.84375 C 131.121094 55.371094 131.953125 55.816406 132.828125 56.175781 C 133.707031 56.539062 134.609375 56.8125 135.539062 57 C 136.46875 57.183594 137.410156 57.277344 138.355469 57.277344 C 139.304688 57.277344 140.246094 57.183594 141.175781 57 C 142.105469 56.8125 143.007812 56.539062 143.882812 56.175781 C 144.761719 55.816406 145.59375 55.371094 146.382812 54.84375 C 147.167969 54.316406 147.898438 53.71875 148.570312 53.046875 C 149.242188 52.375 149.839844 51.644531 150.367188 50.859375 C 150.894531 50.070312 151.335938 49.238281 151.699219 48.359375 C 152.0625 47.484375 152.335938 46.582031 152.523438 45.652344 C 152.707031 44.722656 152.800781 43.78125 152.800781 42.832031 C 152.800781 41.886719 152.707031 40.945312 152.523438 40.015625 C 152.335938 39.085938 152.0625 38.183594 151.699219 37.304688 C 151.335938 36.429688 150.894531 35.597656 150.367188 34.808594 C 149.839844 34.019531 149.242188 33.292969 148.570312 32.621094 C 147.898438 31.949219 147.167969 31.351562 146.382812 30.824219 C 145.59375 30.296875 144.761719 29.851562 143.882812 29.488281 C 143.007812 29.125 142.105469 28.851562 141.175781 28.667969 C 140.246094 28.484375 139.304688 28.390625 138.355469 28.390625 Z M 138.355469 30.902344 C 138.855469 30.902344 139.335938 30.996094 139.796875 31.1875 C 140.261719 31.378906 140.667969 31.652344 141.019531 32.003906 C 141.375 32.359375 141.648438 32.765625 141.835938 33.226562 C 142.027344 33.691406 142.125 34.171875 142.125 34.671875 C 142.125 35.167969 142.027344 35.648438 141.835938 36.113281 C 141.648438 36.574219 141.375 36.980469 141.019531 37.335938 C 140.667969 37.6875 140.261719 37.960938 139.796875 38.152344 C 139.335938 38.34375 138.855469 38.4375 138.355469 38.4375 C 137.855469 38.4375 137.375 38.34375 136.914062 38.152344 C 136.453125 37.960938 136.046875 37.6875 135.691406 37.335938 C 135.339844 36.980469 135.066406 36.574219 134.875 36.113281 C 134.683594 35.648438 134.589844 35.167969 134.589844 34.671875 C 134.589844 34.171875 134.683594 33.691406 134.875 33.226562 C 135.066406 32.765625 135.339844 32.359375 135.691406 32.003906 C 136.046875 31.652344 136.453125 31.378906 136.914062 31.1875 C 137.375 30.996094 137.855469 30.902344 138.355469 30.902344 Z M 126.425781 40.320312 C 126.425781 39.820312 126.519531 39.339844 126.710938 38.878906 C 126.902344 38.417969 127.175781 38.011719 127.527344 37.65625 C 127.882812 37.304688 128.289062 37.03125 128.75 36.839844 C 129.210938 36.648438 129.695312 36.554688 130.191406 36.554688 C 130.691406 36.554688 131.171875 36.648438 131.636719 36.839844 C 132.097656 37.03125 132.503906 37.304688 132.855469 37.65625 C 133.210938 38.011719 133.484375 38.417969 133.675781 38.878906 C 133.867188 39.339844 133.960938 39.820312 133.960938 40.320312 C 133.960938 40.820312 133.867188 41.300781 133.675781 41.761719 C 133.484375 42.226562 133.210938 42.632812 132.855469 42.984375 C 132.503906 43.339844 132.097656 43.613281 131.636719 43.804688 C 131.171875 43.992188 130.691406 44.089844 130.191406 44.089844 C 129.695312 44.089844 129.210938 43.992188 128.75 43.804688 C 128.289062 43.613281 127.882812 43.339844 127.527344 42.984375 C 127.175781 42.632812 126.902344 42.226562 126.710938 41.761719 C 126.519531 41.300781 126.425781 40.820312 126.425781 40.320312 Z M 133.332031 53.507812 C 132.832031 53.507812 132.351562 53.414062 131.890625 53.222656 C 131.429688 53.03125 131.023438 52.757812 130.667969 52.40625 C 130.316406 52.050781 130.042969 51.644531 129.851562 51.183594 C 129.660156 50.722656 129.566406 50.242188 129.566406 49.742188 C 129.566406 49.242188 129.660156 48.761719 129.851562 48.300781 C 130.042969 47.835938 130.316406 47.429688 130.667969 47.078125 C 131.023438 46.722656 131.429688 46.453125 131.890625 46.261719 C 132.351562 46.070312 132.832031 45.972656 133.332031 45.972656 C 133.832031 45.972656 134.3125 46.070312 134.773438 46.261719 C 135.238281 46.453125 135.644531 46.722656 135.996094 47.078125 C 136.351562 47.429688 136.621094 47.835938 136.8125 48.300781 C 137.003906 48.761719 137.101562 49.242188 137.101562 49.742188 C 137.101562 50.242188 137.003906 50.722656 136.8125 51.183594 C 136.621094 51.644531 136.351562 52.050781 135.996094 52.40625 C 135.644531 52.757812 135.238281 53.03125 134.773438 53.222656 C 134.3125 53.414062 133.832031 53.507812 133.332031 53.507812 Z M 136.472656 42.832031 C 136.472656 42.582031 136.519531 42.34375 136.617188 42.113281 C 136.710938 41.882812 136.847656 41.679688 137.023438 41.5 C 137.203125 41.324219 137.40625 41.1875 137.636719 41.09375 C 137.867188 40.996094 138.105469 40.949219 138.355469 40.949219 C 138.605469 40.949219 138.847656 40.996094 139.078125 41.09375 C 139.308594 41.1875 139.511719 41.324219 139.6875 41.5 C 139.867188 41.679688 140 41.882812 140.097656 42.113281 C 140.191406 42.34375 140.242188 42.582031 140.242188 42.832031 C 140.242188 43.082031 140.191406 43.324219 140.097656 43.554688 C 140 43.785156 139.867188 43.988281 139.6875 44.164062 C 139.511719 44.34375 139.308594 44.480469 139.078125 44.574219 C 138.847656 44.667969 138.605469 44.71875 138.355469 44.71875 C 138.105469 44.71875 137.867188 44.667969 137.636719 44.574219 C 137.40625 44.480469 137.203125 44.34375 137.023438 44.164062 C 136.847656 43.988281 136.710938 43.785156 136.617188 43.554688 C 136.519531 43.324219 136.472656 43.082031 136.472656 42.832031 Z M 143.378906 53.507812 C 142.878906 53.507812 142.398438 53.414062 141.9375 53.222656 C 141.476562 53.03125 141.070312 52.757812 140.714844 52.40625 C 140.363281 52.050781 140.089844 51.644531 139.898438 51.183594 C 139.707031 50.722656 139.613281 50.242188 139.613281 49.742188 C 139.613281 49.242188 139.707031 48.761719 139.898438 48.300781 C 140.089844 47.835938 140.363281 47.429688 140.714844 47.078125 C 141.070312 46.722656 141.476562 46.453125 141.9375 46.261719 C 142.398438 46.070312 142.878906 45.972656 143.378906 45.972656 C 143.878906 45.972656 144.359375 46.070312 144.824219 46.261719 C 145.285156 46.453125 145.691406 46.722656 146.042969 47.078125 C 146.398438 47.429688 146.671875 47.835938 146.863281 48.300781 C 147.050781 48.761719 147.148438 49.242188 147.148438 49.742188 C 147.148438 50.242188 147.050781 50.722656 146.863281 51.183594 C 146.671875 51.644531 146.398438 52.050781 146.042969 52.40625 C 145.691406 52.757812 145.285156 53.03125 144.824219 53.222656 C 144.359375 53.414062 143.878906 53.507812 143.378906 53.507812 Z M 146.519531 44.089844 C 146.019531 44.089844 145.539062 43.992188 145.078125 43.804688 C 144.617188 43.613281 144.210938 43.339844 143.855469 42.984375 C 143.503906 42.632812 143.230469 42.226562 143.039062 41.761719 C 142.847656 41.300781 142.753906 40.820312 142.753906 40.320312 C 142.753906 39.820312 142.847656 39.339844 143.039062 38.878906 C 143.230469 38.417969 143.503906 38.011719 143.855469 37.65625 C 144.210938 37.304688 144.617188 37.03125 145.078125 36.839844 C 145.539062 36.648438 146.019531 36.554688 146.519531 36.554688 C 147.019531 36.554688 147.5 36.648438 147.960938 36.839844 C 148.425781 37.03125 148.832031 37.304688 149.183594 37.65625 C 149.539062 38.011719 149.808594 38.417969 150 38.878906 C 150.191406 39.339844 150.289062 39.820312 150.289062 40.320312 C 150.289062 40.820312 150.191406 41.300781 150 41.761719 C 149.808594 42.226562 149.539062 42.632812 149.183594 42.984375 C 148.832031 43.339844 148.425781 43.613281 147.960938 43.804688 C 147.5 43.992188 147.019531 44.089844 146.519531 44.089844 Z M 146.519531 44.089844 " fill-opacity="1" fill-rule="nonzero"/></g><g clip-path="url(#cd1a489fc6)"><path fill="#c4b28d" d="M 172.773438 28.390625 C 171.828125 28.390625 170.886719 28.484375 169.957031 28.667969 C 169.027344 28.851562 168.125 29.125 167.246094 29.488281 C 166.371094 29.851562 165.539062 30.296875 164.75 30.824219 C 163.960938 31.351562 163.234375 31.949219 162.5625 32.621094 C 161.890625 33.292969 161.292969 34.019531 160.765625 34.808594 C 160.238281 35.597656 159.792969 36.429688 159.429688 37.304688 C 159.066406 38.183594 158.792969 39.085938 158.609375 40.015625 C 158.425781 40.945312 158.332031 41.886719 158.332031 42.832031 C 158.332031 43.78125 158.425781 44.722656 158.609375 45.652344 C 158.792969 46.582031 159.066406 47.484375 159.429688 48.359375 C 159.792969 49.238281 160.238281 50.070312 160.765625 50.859375 C 161.292969 51.644531 161.890625 52.375 162.5625 53.046875 C 163.234375 53.71875 163.960938 54.316406 164.75 54.84375 C 165.539062 55.371094 166.371094 55.816406 167.246094 56.175781 C 168.125 56.539062 169.027344 56.8125 169.957031 57 C 170.886719 57.183594 171.828125 57.277344 172.773438 57.277344 C 173.722656 57.277344 174.664062 57.183594 175.59375 57 C 176.523438 56.8125 177.425781 56.539062 178.300781 56.175781 C 179.179688 55.816406 180.011719 55.371094 180.800781 54.84375 C 181.585938 54.316406 182.316406 53.71875 182.988281 53.046875 C 183.660156 52.375 184.257812 51.644531 184.785156 50.859375 C 185.3125 50.070312 185.757812 49.238281 186.117188 48.359375 C 186.480469 47.484375 186.757812 46.582031 186.941406 45.652344 C 187.125 44.722656 187.21875 43.78125 187.21875 42.832031 C 187.21875 41.886719 187.125 40.945312 186.9375 40.015625 C 186.753906 39.085938 186.476562 38.183594 186.113281 37.308594 C 185.75 36.433594 185.304688 35.601562 184.777344 34.8125 C 184.253906 34.023438 183.652344 33.296875 182.984375 32.625 C 182.3125 31.953125 181.582031 31.355469 180.796875 30.828125 C 180.007812 30.300781 179.175781 29.855469 178.300781 29.492188 C 177.425781 29.128906 176.519531 28.855469 175.589844 28.671875 C 174.660156 28.484375 173.722656 28.390625 172.773438 28.390625 Z M 179.292969 48.265625 C 179.121094 48.464844 178.902344 48.578125 178.640625 48.601562 C 178.375 48.625 178.140625 48.554688 177.933594 48.386719 L 172.15625 43.574219 C 171.925781 43.378906 171.8125 43.132812 171.8125 42.832031 L 171.8125 36.09375 C 171.8125 35.828125 171.90625 35.601562 172.09375 35.414062 C 172.28125 35.222656 172.507812 35.128906 172.773438 35.128906 C 173.039062 35.128906 173.269531 35.222656 173.457031 35.414062 C 173.644531 35.601562 173.738281 35.828125 173.738281 36.09375 L 173.738281 42.382812 L 179.167969 46.910156 C 179.375 47.078125 179.488281 47.296875 179.511719 47.5625 C 179.535156 47.824219 179.464844 48.058594 179.292969 48.265625 Z M 179.292969 48.265625 " fill-opacity="1" fill-rule="nonzero"/></g></svg>