<svg xmlns="http://www.w3.org/2000/svg" xmlns:xlink="http://www.w3.org/1999/xlink" width="600" zoomAndPan="magnify" viewBox="0 0 450 74.999997" height="100" preserveAspectRatio="xMidYMid meet" version="1.0"><defs><g/><clipPath id="65438e4382"><rect x="0" width="81" y="0" height="75"/></clipPath><clipPath id="21917fdc67"><rect x="0" width="221" y="0" height="75"/></clipPath><clipPath id="cc8482afa1"><path d="M 108.59375 18.210938 L 197 18.210938 L 197 67.511719 L 108.59375 67.511719 Z M 108.59375 18.210938 " clip-rule="nonzero"/></clipPath><clipPath id="5fa9ab2434"><path d="M 172.238281 18.210938 C 185.851562 18.210938 196.890625 29.25 196.890625 42.863281 C 196.890625 56.476562 185.851562 67.511719 172.238281 67.511719 L 133.246094 67.511719 C 119.632812 67.511719 108.59375 56.476562 108.59375 42.863281 C 108.59375 29.25 119.632812 18.210938 133.246094 18.210938 Z M 172.238281 18.210938 " clip-rule="nonzero"/></clipPath><clipPath id="971dc4d3bd"><path d="M 119.804688 27.835938 L 149.804688 27.835938 L 149.804688 57.835938 L 119.804688 57.835938 Z M 119.804688 27.835938 " clip-rule="nonzero"/></clipPath><clipPath id="feb433b1eb"><path d="M 155.625 27.835938 L 185.625 27.835938 L 185.625 57.835938 L 155.625 57.835938 Z M 155.625 27.835938 " clip-rule="nonzero"/></clipPath></defs><g transform="matrix(1, 0, 0, 1, 26, -0.000000000000001893)"><g clip-path="url(#65438e4382)"><g fill="#bfac8d" fill-opacity="1"><g transform="translate(1.35094, 66.486677)"><g><path d="M 20.546875 0.65625 C 16.921875 0.65625 13.375 0.207031 9.90625 -0.6875 C 6.4375 -1.582031 3.675781 -2.707031 1.625 -4.0625 L 5.84375 -13.15625 C 7.789062 -11.914062 10.144531 -10.898438 12.90625 -10.109375 C 15.675781 -9.328125 18.382812 -8.9375 21.03125 -8.9375 C 26.394531 -8.9375 29.078125 -10.257812 29.078125 -12.90625 C 29.078125 -14.15625 28.34375 -15.050781 26.875 -15.59375 C 25.414062 -16.132812 23.171875 -16.59375 20.140625 -16.96875 C 16.566406 -17.507812 13.613281 -18.132812 11.28125 -18.84375 C 8.957031 -19.550781 6.941406 -20.796875 5.234375 -22.578125 C 3.535156 -24.367188 2.6875 -26.914062 2.6875 -30.21875 C 2.6875 -32.976562 3.484375 -35.425781 5.078125 -37.5625 C 6.671875 -39.695312 9 -41.359375 12.0625 -42.546875 C 15.125 -43.742188 18.738281 -44.34375 22.90625 -44.34375 C 25.988281 -44.34375 29.054688 -44.003906 32.109375 -43.328125 C 35.171875 -42.648438 37.707031 -41.71875 39.71875 -40.53125 L 35.5 -31.515625 C 31.644531 -33.679688 27.445312 -34.765625 22.90625 -34.765625 C 20.195312 -34.765625 18.164062 -34.382812 16.8125 -33.625 C 15.457031 -32.863281 14.78125 -31.890625 14.78125 -30.703125 C 14.78125 -29.347656 15.507812 -28.398438 16.96875 -27.859375 C 18.4375 -27.316406 20.765625 -26.800781 23.953125 -26.3125 C 27.523438 -25.71875 30.445312 -25.082031 32.71875 -24.40625 C 35 -23.726562 36.976562 -22.492188 38.65625 -20.703125 C 40.332031 -18.921875 41.171875 -16.429688 41.171875 -13.234375 C 41.171875 -10.523438 40.359375 -8.113281 38.734375 -6 C 37.117188 -3.894531 34.753906 -2.257812 31.640625 -1.09375 C 28.523438 0.0703125 24.828125 0.65625 20.546875 0.65625 Z M 20.546875 0.65625 "/></g></g></g><g fill="#bfac8d" fill-opacity="1"><g transform="translate(44.47356, 66.486677)"><g><path d="M 34.03125 -2.109375 C 32.78125 -1.191406 31.25 -0.5 29.4375 -0.03125 C 27.625 0.425781 25.71875 0.65625 23.71875 0.65625 C 18.519531 0.65625 14.5 -0.671875 11.65625 -3.328125 C 8.8125 -5.984375 7.390625 -9.882812 7.390625 -15.03125 L 7.390625 -32.96875 L 0.65625 -32.96875 L 0.65625 -42.71875 L 7.390625 -42.71875 L 7.390625 -53.359375 L 20.0625 -53.359375 L 20.0625 -42.71875 L 30.9375 -42.71875 L 30.9375 -32.96875 L 20.0625 -32.96875 L 20.0625 -15.1875 C 20.0625 -13.34375 20.535156 -11.921875 21.484375 -10.921875 C 22.429688 -9.921875 23.769531 -9.421875 25.5 -9.421875 C 27.5 -9.421875 29.207031 -9.960938 30.625 -11.046875 Z M 34.03125 -2.109375 "/></g></g></g></g></g><g transform="matrix(1, 0, 0, 1, 199, -0.000000000000001893)"><g clip-path="url(#21917fdc67)"><g fill="#bfac8d" fill-opacity="1"><g transform="translate(0.674133, 65.987164)"><g><path d="M 50.359375 -60.28125 L 50.359375 0 L 38.265625 0 L 38.265625 -5.03125 C 35.117188 -1.238281 30.566406 0.65625 24.609375 0.65625 C 20.492188 0.65625 16.769531 -0.265625 13.4375 -2.109375 C 10.113281 -3.953125 7.503906 -6.578125 5.609375 -9.984375 C 3.710938 -13.398438 2.765625 -17.359375 2.765625 -21.859375 C 2.765625 -26.347656 3.710938 -30.296875 5.609375 -33.703125 C 7.503906 -37.117188 10.113281 -39.75 13.4375 -41.59375 C 16.769531 -43.4375 20.492188 -44.359375 24.609375 -44.359375 C 30.191406 -44.359375 34.550781 -42.597656 37.6875 -39.078125 L 37.6875 -60.28125 Z M 26.8125 -9.75 C 30 -9.75 32.648438 -10.84375 34.765625 -13.03125 C 36.878906 -15.226562 37.9375 -18.171875 37.9375 -21.859375 C 37.9375 -25.535156 36.878906 -28.46875 34.765625 -30.65625 C 32.648438 -32.851562 30 -33.953125 26.8125 -33.953125 C 23.5625 -33.953125 20.878906 -32.851562 18.765625 -30.65625 C 16.648438 -28.46875 15.59375 -25.535156 15.59375 -21.859375 C 15.59375 -18.171875 16.648438 -15.226562 18.765625 -13.03125 C 20.878906 -10.84375 23.5625 -9.75 26.8125 -9.75 Z M 26.8125 -9.75 "/></g></g></g><g fill="#bfac8d" fill-opacity="1"><g transform="translate(56.885191, 65.987164)"><g><path d="M 5.84375 -43.703125 L 18.515625 -43.703125 L 18.515625 0 L 5.84375 0 Z M 12.1875 -49.796875 C 9.863281 -49.796875 7.96875 -50.472656 6.5 -51.828125 C 5.039062 -53.179688 4.3125 -54.859375 4.3125 -56.859375 C 4.3125 -58.867188 5.039062 -60.550781 6.5 -61.90625 C 7.96875 -63.257812 9.863281 -63.9375 12.1875 -63.9375 C 14.519531 -63.9375 16.414062 -63.285156 17.875 -61.984375 C 19.34375 -60.679688 20.078125 -59.054688 20.078125 -57.109375 C 20.078125 -54.992188 19.34375 -53.242188 17.875 -51.859375 C 16.414062 -50.484375 14.519531 -49.796875 12.1875 -49.796875 Z M 12.1875 -49.796875 "/></g></g></g><g fill="#bfac8d" fill-opacity="1"><g transform="translate(81.335378, 65.987164)"><g><path d="M 26.640625 0.65625 C 22.035156 0.65625 17.90625 -0.304688 14.25 -2.234375 C 10.59375 -4.160156 7.734375 -6.828125 5.671875 -10.234375 C 3.617188 -13.648438 2.59375 -17.523438 2.59375 -21.859375 C 2.59375 -26.179688 3.617188 -30.050781 5.671875 -33.46875 C 7.734375 -36.882812 10.59375 -39.550781 14.25 -41.46875 C 17.90625 -43.394531 22.035156 -44.359375 26.640625 -44.359375 C 31.242188 -44.359375 35.359375 -43.394531 38.984375 -41.46875 C 42.617188 -39.550781 45.460938 -36.882812 47.515625 -33.46875 C 49.578125 -30.050781 50.609375 -26.179688 50.609375 -21.859375 C 50.609375 -17.523438 49.578125 -13.648438 47.515625 -10.234375 C 45.460938 -6.828125 42.617188 -4.160156 38.984375 -2.234375 C 35.359375 -0.304688 31.242188 0.65625 26.640625 0.65625 Z M 26.640625 -9.75 C 29.890625 -9.75 32.554688 -10.84375 34.640625 -13.03125 C 36.734375 -15.226562 37.78125 -18.171875 37.78125 -21.859375 C 37.78125 -25.535156 36.734375 -28.46875 34.640625 -30.65625 C 32.554688 -32.851562 29.890625 -33.953125 26.640625 -33.953125 C 23.390625 -33.953125 20.707031 -32.851562 18.59375 -30.65625 C 16.488281 -28.46875 15.4375 -25.535156 15.4375 -21.859375 C 15.4375 -18.171875 16.488281 -15.226562 18.59375 -13.03125 C 20.707031 -10.84375 23.390625 -9.75 26.640625 -9.75 Z M 26.640625 -9.75 "/></g></g></g><g fill="#bfac8d" fill-opacity="1"><g transform="translate(134.540929, 65.987164)"><g><path d="M 17.953125 -37.9375 C 19.472656 -40.050781 21.515625 -41.648438 24.078125 -42.734375 C 26.648438 -43.816406 29.617188 -44.359375 32.984375 -44.359375 L 32.984375 -32.65625 C 31.578125 -32.757812 30.628906 -32.8125 30.140625 -32.8125 C 26.503906 -32.8125 23.65625 -31.796875 21.59375 -29.765625 C 19.539062 -27.734375 18.515625 -24.691406 18.515625 -20.640625 L 18.515625 0 L 5.84375 0 L 5.84375 -43.703125 L 17.953125 -43.703125 Z M 17.953125 -37.9375 "/></g></g></g><g fill="#bfac8d" fill-opacity="1"><g transform="translate(169.550987, 65.987164)"><g><path d="M 23.484375 -44.359375 C 30.242188 -44.359375 35.4375 -42.742188 39.0625 -39.515625 C 42.695312 -36.296875 44.515625 -31.4375 44.515625 -24.9375 L 44.515625 0 L 32.65625 0 L 32.65625 -5.4375 C 30.269531 -1.375 25.828125 0.65625 19.328125 0.65625 C 15.972656 0.65625 13.0625 0.0859375 10.59375 -1.046875 C 8.132812 -2.191406 6.253906 -3.765625 4.953125 -5.765625 C 3.648438 -7.765625 3 -10.039062 3 -12.59375 C 3 -16.65625 4.53125 -19.847656 7.59375 -22.171875 C 10.65625 -24.503906 15.378906 -25.671875 21.765625 -25.671875 L 31.84375 -25.671875 C 31.84375 -28.429688 31.003906 -30.554688 29.328125 -32.046875 C 27.648438 -33.535156 25.128906 -34.28125 21.765625 -34.28125 C 19.441406 -34.28125 17.15625 -33.914062 14.90625 -33.1875 C 12.65625 -32.457031 10.742188 -31.46875 9.171875 -30.21875 L 4.625 -39.078125 C 7.007812 -40.753906 9.867188 -42.050781 13.203125 -42.96875 C 16.535156 -43.894531 19.960938 -44.359375 23.484375 -44.359375 Z M 22.5 -7.875 C 24.664062 -7.875 26.585938 -8.375 28.265625 -9.375 C 29.941406 -10.382812 31.132812 -11.863281 31.84375 -13.8125 L 31.84375 -18.28125 L 23.15625 -18.28125 C 17.957031 -18.28125 15.359375 -16.570312 15.359375 -13.15625 C 15.359375 -11.53125 15.992188 -10.242188 17.265625 -9.296875 C 18.535156 -8.347656 20.28125 -7.875 22.5 -7.875 Z M 22.5 -7.875 "/></g></g></g></g></g><g clip-path="url(#cc8482afa1)"><g clip-path="url(#5fa9ab2434)"><path stroke-linecap="butt" transform="matrix(0.75, 0, 0, 0.75, 108.595438, 18.212006)" fill="none" stroke-linejoin="miter" d="M 84.857132 -0.00142476 C 103.008175 -0.00142476 117.726926 14.717326 117.726926 32.86837 C 117.726926 51.019413 103.008175 65.732956 84.857132 65.732956 L 32.867544 65.732956 C 14.716501 65.732956 -0.00225031 51.019413 -0.00225031 32.86837 C -0.00225031 14.717326 14.716501 -0.00142476 32.867544 -0.00142476 Z M 84.857132 -0.00142476 " stroke="#bfac8d" stroke-width="14" stroke-opacity="1" stroke-miterlimit="4"/></g></g><g clip-path="url(#971dc4d3bd)"><path fill="#bfac8d" d="M 134.835938 27.835938 C 133.847656 27.835938 132.871094 27.929688 131.902344 28.125 C 130.9375 28.316406 129.996094 28.601562 129.085938 28.980469 C 128.171875 29.355469 127.304688 29.820312 126.484375 30.367188 C 125.664062 30.917969 124.90625 31.539062 124.207031 32.238281 C 123.511719 32.933594 122.886719 33.695312 122.339844 34.515625 C 121.792969 35.335938 121.328125 36.199219 120.949219 37.113281 C 120.574219 38.023438 120.289062 38.964844 120.09375 39.933594 C 119.902344 40.898438 119.804688 41.878906 119.804688 42.863281 C 119.804688 43.851562 119.902344 44.828125 120.09375 45.796875 C 120.289062 46.765625 120.574219 47.703125 120.949219 48.617188 C 121.328125 49.527344 121.792969 50.394531 122.339844 51.214844 C 122.886719 52.035156 123.511719 52.792969 124.207031 53.492188 C 124.90625 54.1875 125.664062 54.8125 126.484375 55.359375 C 127.304688 55.910156 128.171875 56.371094 129.085938 56.75 C 129.996094 57.128906 130.9375 57.414062 131.902344 57.605469 C 132.871094 57.796875 133.847656 57.894531 134.835938 57.894531 C 135.824219 57.894531 136.800781 57.796875 137.769531 57.605469 C 138.734375 57.414062 139.675781 57.128906 140.585938 56.75 C 141.5 56.371094 142.363281 55.910156 143.1875 55.359375 C 144.007812 54.8125 144.765625 54.1875 145.464844 53.492188 C 146.160156 52.792969 146.785156 52.035156 147.332031 51.214844 C 147.878906 50.394531 148.34375 49.527344 148.722656 48.617188 C 149.097656 47.703125 149.382812 46.765625 149.578125 45.796875 C 149.769531 44.828125 149.863281 43.851562 149.863281 42.863281 C 149.863281 41.878906 149.769531 40.898438 149.578125 39.933594 C 149.382812 38.964844 149.097656 38.023438 148.722656 37.113281 C 148.34375 36.199219 147.878906 35.335938 147.332031 34.515625 C 146.785156 33.695312 146.160156 32.933594 145.464844 32.238281 C 144.765625 31.539062 144.007812 30.917969 143.1875 30.367188 C 142.363281 29.820312 141.5 29.355469 140.585938 28.980469 C 139.675781 28.601562 138.734375 28.316406 137.769531 28.125 C 136.800781 27.929688 135.824219 27.835938 134.835938 27.835938 Z M 134.835938 30.449219 C 135.355469 30.449219 135.855469 30.546875 136.335938 30.746094 C 136.816406 30.945312 137.242188 31.230469 137.609375 31.597656 C 137.976562 31.964844 138.257812 32.390625 138.457031 32.867188 C 138.65625 33.347656 138.757812 33.847656 138.757812 34.371094 C 138.757812 34.890625 138.65625 35.390625 138.457031 35.871094 C 138.257812 36.351562 137.976562 36.773438 137.609375 37.140625 C 137.242188 37.507812 136.816406 37.792969 136.335938 37.992188 C 135.855469 38.191406 135.355469 38.289062 134.835938 38.289062 C 134.316406 38.289062 133.816406 38.191406 133.335938 37.992188 C 132.855469 37.792969 132.429688 37.507812 132.0625 37.140625 C 131.695312 36.773438 131.414062 36.351562 131.214844 35.871094 C 131.015625 35.390625 130.914062 34.890625 130.914062 34.371094 C 130.914062 33.847656 131.015625 33.347656 131.214844 32.867188 C 131.414062 32.390625 131.695312 31.964844 132.0625 31.597656 C 132.429688 31.230469 132.855469 30.945312 133.335938 30.746094 C 133.816406 30.546875 134.316406 30.449219 134.835938 30.449219 Z M 122.421875 40.25 C 122.421875 39.730469 122.519531 39.230469 122.71875 38.75 C 122.917969 38.269531 123.199219 37.847656 123.570312 37.476562 C 123.9375 37.109375 124.359375 36.828125 124.839844 36.628906 C 125.320312 36.429688 125.820312 36.328125 126.339844 36.328125 C 126.859375 36.328125 127.359375 36.429688 127.839844 36.628906 C 128.320312 36.828125 128.746094 37.109375 129.113281 37.476562 C 129.480469 37.847656 129.765625 38.269531 129.964844 38.75 C 130.164062 39.230469 130.261719 39.730469 130.261719 40.25 C 130.261719 40.769531 130.164062 41.269531 129.964844 41.75 C 129.765625 42.230469 129.480469 42.65625 129.113281 43.023438 C 128.746094 43.390625 128.320312 43.671875 127.839844 43.871094 C 127.359375 44.070312 126.859375 44.171875 126.339844 44.171875 C 125.820312 44.171875 125.320312 44.070312 124.839844 43.871094 C 124.359375 43.671875 123.9375 43.390625 123.570312 43.023438 C 123.199219 42.65625 122.917969 42.230469 122.71875 41.75 C 122.519531 41.269531 122.421875 40.769531 122.421875 40.25 Z M 129.609375 53.972656 C 129.089844 53.972656 128.589844 53.875 128.109375 53.675781 C 127.628906 53.476562 127.203125 53.191406 126.835938 52.824219 C 126.46875 52.457031 126.183594 52.03125 125.984375 51.550781 C 125.785156 51.070312 125.6875 50.570312 125.6875 50.050781 C 125.6875 49.53125 125.785156 49.03125 125.984375 48.550781 C 126.183594 48.070312 126.46875 47.648438 126.835938 47.28125 C 127.203125 46.914062 127.628906 46.628906 128.109375 46.429688 C 128.589844 46.230469 129.089844 46.132812 129.609375 46.132812 C 130.128906 46.132812 130.628906 46.230469 131.109375 46.429688 C 131.589844 46.628906 132.011719 46.914062 132.378906 47.28125 C 132.75 47.648438 133.03125 48.070312 133.230469 48.550781 C 133.429688 49.03125 133.527344 49.53125 133.527344 50.050781 C 133.527344 50.570312 133.429688 51.070312 133.230469 51.550781 C 133.03125 52.03125 132.75 52.457031 132.378906 52.824219 C 132.011719 53.191406 131.589844 53.476562 131.109375 53.675781 C 130.628906 53.875 130.128906 53.972656 129.609375 53.972656 Z M 132.875 42.863281 C 132.875 42.605469 132.925781 42.355469 133.023438 42.113281 C 133.125 41.875 133.265625 41.660156 133.449219 41.476562 C 133.632812 41.292969 133.84375 41.152344 134.085938 41.054688 C 134.324219 40.953125 134.574219 40.902344 134.835938 40.902344 C 135.097656 40.902344 135.347656 40.953125 135.585938 41.054688 C 135.824219 41.152344 136.039062 41.292969 136.222656 41.476562 C 136.40625 41.660156 136.546875 41.875 136.648438 42.113281 C 136.746094 42.355469 136.796875 42.605469 136.796875 42.863281 C 136.796875 43.125 136.746094 43.375 136.648438 43.613281 C 136.546875 43.855469 136.40625 44.066406 136.222656 44.25 C 136.039062 44.433594 135.824219 44.574219 135.585938 44.675781 C 135.347656 44.773438 135.097656 44.824219 134.835938 44.824219 C 134.574219 44.824219 134.324219 44.773438 134.085938 44.675781 C 133.84375 44.574219 133.632812 44.433594 133.449219 44.25 C 133.265625 44.066406 133.125 43.855469 133.023438 43.613281 C 132.925781 43.375 132.875 43.125 132.875 42.863281 Z M 140.0625 53.972656 C 139.542969 53.972656 139.042969 53.875 138.5625 53.675781 C 138.082031 53.476562 137.660156 53.191406 137.289062 52.824219 C 136.921875 52.457031 136.640625 52.03125 136.441406 51.550781 C 136.242188 51.070312 136.144531 50.570312 136.144531 50.050781 C 136.144531 49.53125 136.242188 49.03125 136.441406 48.550781 C 136.640625 48.070312 136.921875 47.648438 137.289062 47.28125 C 137.660156 46.914062 138.082031 46.628906 138.5625 46.429688 C 139.042969 46.230469 139.542969 46.132812 140.0625 46.132812 C 140.582031 46.132812 141.082031 46.230469 141.5625 46.429688 C 142.042969 46.628906 142.46875 46.914062 142.835938 47.28125 C 143.203125 47.648438 143.488281 48.070312 143.6875 48.550781 C 143.882812 49.03125 143.984375 49.53125 143.984375 50.050781 C 143.984375 50.570312 143.882812 51.070312 143.6875 51.550781 C 143.488281 52.03125 143.203125 52.457031 142.835938 52.824219 C 142.46875 53.191406 142.042969 53.476562 141.5625 53.675781 C 141.082031 53.875 140.582031 53.972656 140.0625 53.972656 Z M 143.332031 44.171875 C 142.8125 44.171875 142.308594 44.070312 141.832031 43.871094 C 141.351562 43.671875 140.925781 43.390625 140.558594 43.023438 C 140.191406 42.65625 139.90625 42.230469 139.707031 41.75 C 139.507812 41.269531 139.410156 40.769531 139.410156 40.25 C 139.410156 39.730469 139.507812 39.230469 139.707031 38.75 C 139.90625 38.269531 140.191406 37.847656 140.558594 37.476562 C 140.925781 37.109375 141.351562 36.828125 141.832031 36.628906 C 142.308594 36.429688 142.8125 36.328125 143.332031 36.328125 C 143.851562 36.328125 144.351562 36.429688 144.832031 36.628906 C 145.3125 36.828125 145.734375 37.109375 146.101562 37.476562 C 146.46875 37.847656 146.753906 38.269531 146.953125 38.75 C 147.152344 39.230469 147.25 39.730469 147.25 40.25 C 147.25 40.769531 147.152344 41.269531 146.953125 41.75 C 146.753906 42.230469 146.46875 42.65625 146.101562 43.023438 C 145.734375 43.390625 145.3125 43.671875 144.832031 43.871094 C 144.351562 44.070312 143.851562 44.171875 143.332031 44.171875 Z M 143.332031 44.171875 " fill-opacity="1" fill-rule="nonzero"/></g><g clip-path="url(#feb433b1eb)"><path fill="#bfac8d" d="M 170.652344 27.835938 C 169.664062 27.835938 168.6875 27.929688 167.71875 28.125 C 166.753906 28.316406 165.8125 28.601562 164.902344 28.980469 C 163.988281 29.355469 163.125 29.820312 162.300781 30.367188 C 161.480469 30.917969 160.722656 31.539062 160.023438 32.238281 C 159.328125 32.933594 158.703125 33.695312 158.15625 34.515625 C 157.609375 35.335938 157.144531 36.199219 156.765625 37.113281 C 156.390625 38.023438 156.105469 38.964844 155.910156 39.933594 C 155.71875 40.898438 155.625 41.878906 155.625 42.863281 C 155.625 43.851562 155.71875 44.828125 155.910156 45.796875 C 156.105469 46.765625 156.390625 47.703125 156.765625 48.617188 C 157.144531 49.527344 157.609375 50.394531 158.15625 51.214844 C 158.703125 52.035156 159.328125 52.792969 160.023438 53.492188 C 160.722656 54.1875 161.480469 54.8125 162.300781 55.359375 C 163.125 55.910156 163.988281 56.371094 164.902344 56.75 C 165.8125 57.128906 166.753906 57.414062 167.71875 57.605469 C 168.6875 57.796875 169.664062 57.894531 170.652344 57.894531 C 171.640625 57.894531 172.617188 57.796875 173.585938 57.605469 C 174.550781 57.414062 175.492188 57.128906 176.402344 56.75 C 177.316406 56.371094 178.183594 55.910156 179.003906 55.359375 C 179.824219 54.8125 180.582031 54.1875 181.28125 53.492188 C 181.976562 52.792969 182.601562 52.035156 183.148438 51.214844 C 183.695312 50.394531 184.160156 49.527344 184.539062 48.617188 C 184.914062 47.703125 185.199219 46.765625 185.394531 45.796875 C 185.585938 44.828125 185.683594 43.851562 185.683594 42.863281 C 185.679688 41.878906 185.582031 40.902344 185.390625 39.933594 C 185.195312 38.964844 184.910156 38.027344 184.53125 37.117188 C 184.15625 36.203125 183.691406 35.339844 183.144531 34.519531 C 182.59375 33.699219 181.972656 32.941406 181.273438 32.242188 C 180.578125 31.542969 179.816406 30.921875 179 30.375 C 178.179688 29.824219 177.3125 29.363281 176.402344 28.984375 C 175.488281 28.605469 174.550781 28.320312 173.582031 28.125 C 172.617188 27.933594 171.640625 27.835938 170.652344 27.835938 Z M 177.433594 48.515625 C 177.253906 48.722656 177.027344 48.839844 176.753906 48.867188 C 176.480469 48.890625 176.234375 48.816406 176.023438 48.644531 L 170.011719 43.632812 C 169.769531 43.433594 169.648438 43.175781 169.652344 42.863281 L 169.652344 35.851562 C 169.652344 35.71875 169.675781 35.589844 169.726562 35.46875 C 169.777344 35.34375 169.851562 35.234375 169.945312 35.140625 C 170.039062 35.046875 170.144531 34.976562 170.269531 34.925781 C 170.390625 34.875 170.519531 34.847656 170.652344 34.847656 C 170.785156 34.847656 170.914062 34.875 171.035156 34.925781 C 171.160156 34.976562 171.265625 35.046875 171.359375 35.140625 C 171.453125 35.234375 171.527344 35.34375 171.578125 35.46875 C 171.628906 35.589844 171.65625 35.71875 171.65625 35.851562 L 171.65625 42.394531 L 177.304688 47.105469 C 177.410156 47.191406 177.492188 47.289062 177.550781 47.410156 C 177.613281 47.527344 177.652344 47.652344 177.664062 47.785156 C 177.675781 47.914062 177.660156 48.046875 177.621094 48.171875 C 177.582031 48.296875 177.519531 48.414062 177.433594 48.515625 Z M 177.433594 48.515625 " fill-opacity="1" fill-rule="nonzero"/></g></svg>